<svg xmlns="http://www.w3.org/2000/svg" width="26" height="26" viewBox="0 0 26 26">
  <g id="Group_563" data-name="Group 563" transform="translate(-126.649 -185.84)">
    <circle id="fullLogo" cx="13" cy="13" r="13" transform="translate(126.649 185.84)" fill="#0047ff"/>
    <path id="fullLogo-2" data-name="fullLogo" d="M163.418,210.465l-2.513,1.319a7.622,7.622,0,0,0-8.743,0l-2.513-1.319a.508.508,0,0,0-.745.45v7.119h0a7.629,7.629,0,1,0,15.259,0v-7.12A.508.508,0,0,0,163.418,210.465ZM151.675,215.4a12.919,12.919,0,0,1,9.728,0,2.9,2.9,0,0,1-2.183,5.368c-2.635-1.072-2.727-1.072-5.362,0h0a2.905,2.905,0,0,1-3.989-2.49A2.868,2.868,0,0,1,151.675,215.4Z" transform="translate(-17.112 -18.761)" fill="#fff"/>
    <path id="fullLogo-3" data-name="fullLogo" d="M191.716,234.167a1.559,1.559,0,0,0-1.358,1.592.941.941,0,0,1,.484-.136.95.95,0,0,1,.229,1.873,1.123,1.123,0,0,0,.646.21,1.829,1.829,0,0,0,0-3.538Z" transform="translate(-48.342 -36.662)" fill="#fff"/>
    <path id="fullLogo-4" data-name="fullLogo" d="M159.64,234.167a1.829,1.829,0,0,0,0,3.538,1.12,1.12,0,0,0,.645-.21.95.95,0,1,1,.713-1.736A1.56,1.56,0,0,0,159.64,234.167Z" transform="translate(-24.171 -36.662)" fill="#fff"/>
  </g>
</svg>
